<svg width="179" height="41" viewBox="0 0 179 41" fill="none" xmlns="http://www.w3.org/2000/svg">
<path d="M24.9221 1.41197C24.0046 2.18559 23.2299 2.83478 23.1914 2.8456C23.1584 2.86183 21.4442 2.27756 19.3838 1.54181C17.3289 0.811475 15.5982 0.194746 15.5488 0.178516C15.4993 0.162286 15.9334 0.605898 16.5213 1.16853C17.8564 2.44527 19.2025 3.85184 20.2849 5.09612L21.1145 6.05908H26.6089L32.1032 6.05367L32.5153 5.56137C33.3449 4.56054 34.3339 3.50561 35.9163 1.93132C37.0426 0.811475 37.4877 0.340813 37.3723 0.378683C36.8119 0.568029 29.6857 2.70494 29.6198 2.70494C29.5758 2.70494 28.889 2.09362 28.0924 1.35247C27.2957 0.605898 26.6364 -1.09673e-05 26.6199 -1.09673e-05C26.6034 -1.09673e-05 25.8397 0.632948 24.9221 1.41197ZM27.6968 2.44527C28.2737 2.98626 28.878 3.54348 29.0264 3.68413L29.3011 3.94381L31.4164 3.30003C32.5812 2.94298 33.5647 2.65084 33.6032 2.65084C33.6416 2.65084 33.3999 2.94839 33.0592 3.31085C32.7241 3.67872 32.2571 4.19807 32.0263 4.47398L31.6087 4.97169H26.6034L21.6035 4.9771L21.2958 4.60923C21.131 4.40906 20.708 3.93299 20.3563 3.54348C20.0047 3.15937 19.7245 2.83478 19.7355 2.82937C19.7464 2.81855 20.5761 3.09986 21.5761 3.45692L23.4002 4.10611L24.9661 2.78609C25.8287 2.05575 26.5594 1.46066 26.5869 1.46066C26.6144 1.46066 27.1144 1.90428 27.6968 2.44527Z" fill="black"/>
<path d="M21.8893 7.45324C23.675 9.02751 24.642 9.99587 25.62 11.1969C26.8836 12.7549 28.0924 14.5401 29.2297 16.5526C29.6857 17.3533 30.7022 19.3333 30.7022 19.4144C30.7022 19.5497 25.9661 23.131 22.8179 25.3761C20.0707 27.3399 19.6037 27.6536 19.6037 27.5346C19.6037 27.4751 19.6806 27.0802 19.7685 26.6528C20.4883 23.2933 22.1366 19.4848 24.4991 15.7141C24.7024 15.3895 24.8617 15.1082 24.8508 15.092C24.8398 15.0757 24.642 14.9459 24.4112 14.7998L23.9827 14.5347L23.8893 14.6592C23.7079 14.8972 22.6256 16.6987 22.186 17.4993C21.5926 18.5759 20.9663 19.8472 20.5103 20.9075C20.307 21.3836 20.1202 21.7948 20.0927 21.8218C20.0707 21.8489 19.1037 21.3944 17.9444 20.8156C15.4775 19.5821 14.3182 19.0357 13.3237 18.6354C10.0821 17.3425 7.87887 17.2559 5.18117 18.3216C2.87357 19.2305 0.983532 20.7993 0.329711 22.3466C-0.104339 23.3798 -0.109833 24.3212 0.313228 25.4031C1.03847 27.2425 3.52739 29.3577 6.10971 30.3261C9.21948 31.5 13.4281 31.3594 17.6697 29.9474L18.2301 29.7581V30.5533C18.2301 32.8471 18.8125 34.892 19.8784 36.3635C21.2465 38.2461 23.4552 39.6906 25.7024 40.172C26.3727 40.3181 27.6089 40.3073 28.422 40.1504C30.8011 39.6906 32.7241 38.4084 33.757 36.5907C34.224 35.7738 34.5702 34.7405 34.7734 33.5666C34.9877 32.3548 34.9658 29.6607 34.735 28.5192L34.702 28.3569L35.2679 28.4867C36.2184 28.7031 37.4931 28.9249 38.4766 29.0548C39.7183 29.2171 41.6853 29.2279 42.6138 29.0872C44.8665 28.741 46.4708 27.9295 48.0916 26.3228C49.0861 25.3382 49.6905 24.3915 49.9981 23.342C50.1025 22.9795 50.1245 22.7902 50.119 22.1518C50.119 21.4485 50.108 21.3566 49.9432 20.8805C49.5037 19.5875 48.5641 18.4893 47.0477 17.4939C44.317 15.7087 41.3831 15.2272 37.8448 15.9954C36.147 16.3579 33.7076 17.3316 32.0593 18.2892L31.5373 18.5921L31.0813 17.6995C29.3671 14.3346 27.3122 11.3375 25.1365 9.01669L24.5925 8.43783H27.6199H30.6472V7.9239V7.40996H26.2408C23.8178 7.40996 21.8564 7.4316 21.8893 7.45324ZM42.2567 16.7961C43.405 16.9421 44.2621 17.2126 45.3719 17.7752C47.2125 18.7003 48.4542 19.8905 48.8938 21.151C49.0641 21.6325 49.0971 22.4169 48.9762 22.9579C48.8608 23.461 48.4652 24.24 48.0532 24.781C47.6356 25.3274 46.729 26.1767 46.0862 26.6258C43.6632 28.319 40.515 28.5625 35.5097 27.4481C34.4163 27.2046 34.5152 27.2587 34.4438 26.8692C34.1196 25.2246 33.246 22.5305 32.3834 20.5072C32.2131 20.1069 32.0758 19.7769 32.0758 19.7661C32.0758 19.7607 32.323 19.5605 32.6252 19.3225C34.0207 18.2243 37.2734 17.0341 39.5755 16.7798C40.2842 16.6987 41.5809 16.7095 42.2567 16.7961ZM10.3293 18.8193C11.8348 19.1115 13.0545 19.6092 16.873 21.4864C19.274 22.6657 19.7191 22.8984 19.6861 22.9795C19.2301 24.1102 18.6257 26.4526 18.4224 27.8592C18.373 28.2 18.3016 28.5138 18.2631 28.5517C18.0873 28.7356 16.0764 29.3523 14.8237 29.6174C11.2249 30.364 8.20304 30.1584 5.7306 29.0007C3.81309 28.1026 1.95053 26.4472 1.36813 25.1272C0.857163 23.9858 1.05496 22.8984 1.9725 21.7785C2.92302 20.61 5.03832 19.3549 6.7965 18.9059C7.86239 18.6354 9.20849 18.6029 10.3293 18.8193ZM31.7131 21.7353C33.1416 25.3058 33.8394 28.4543 33.8449 31.2945C33.8559 34.984 32.7131 37.202 30.1582 38.4571C28.911 39.0738 27.2243 39.3606 26.076 39.1442C25.0266 38.9494 23.7904 38.4138 22.7904 37.716C22.1476 37.2669 21.1586 36.304 20.7685 35.7414C19.9773 34.6053 19.5378 33.3069 19.3839 31.6461C19.3015 30.7968 19.329 29.4227 19.4279 29.309C19.4663 29.2604 19.4828 29.19 19.4663 29.1468C19.4444 29.0872 19.774 28.8276 20.6311 28.2379C23.9222 25.9658 28.955 22.26 30.867 20.7074L31.1692 20.4585L31.2406 20.5884C31.2791 20.6641 31.4934 21.178 31.7131 21.7353Z" fill="black"/>
<path d="M115.473 20.0537C114.391 22.4635 113.493 24.4643 113.487 24.4962C113.474 24.5282 113.834 24.541 114.299 24.5346L115.132 24.5154L115.591 23.4799L116.043 22.438H118.2C119.386 22.438 120.356 22.4635 120.356 22.4955C120.356 22.5211 120.553 23.0005 120.789 23.5502L121.222 24.5474H122.074C122.565 24.5474 122.913 24.5218 122.9 24.4898C122.893 24.4579 121.995 22.4571 120.914 20.0473L118.954 15.6623H118.193H117.439L115.473 20.0537ZM118.954 19.3186C119.367 20.2391 119.701 20.9997 119.701 21.0125C119.701 21.0253 119.013 21.0317 118.167 21.0317H116.633L117.393 19.3058C117.806 18.3598 118.167 17.5927 118.18 17.6119C118.2 17.6247 118.547 18.3982 118.954 19.3186Z" fill="black"/>
<path d="M154.606 20.0537C153.524 22.4635 152.626 24.4643 152.619 24.4962C152.606 24.5282 152.967 24.541 153.432 24.5346L154.265 24.5154L154.724 23.4799L155.176 22.438H157.333C158.519 22.438 159.489 22.4635 159.489 22.4955C159.489 22.5211 159.686 23.0005 159.922 23.5502L160.354 24.5474H161.207C161.698 24.5474 162.046 24.5218 162.033 24.4898C162.026 24.4579 161.128 22.4571 160.046 20.0473L158.086 15.6623H157.326H156.572L154.606 20.0537ZM158.086 19.3186C158.499 20.2391 158.834 20.9997 158.834 21.0125C158.834 21.0253 158.145 21.0317 157.306 21.0317H155.772L156.533 19.3122C156.946 18.3598 157.3 17.5991 157.319 17.6119C157.333 17.6311 157.68 18.3982 158.086 19.3186Z" fill="black"/>
<path d="M60.8594 15.7723C60.8594 15.8042 61.6919 17.7986 62.7079 20.2148L64.563 24.6062L65.284 24.6125H66.0051L67.8798 20.1828L69.748 15.7595L68.8959 15.7403C68.3649 15.7275 68.0306 15.7467 68.0044 15.7914C67.9847 15.8234 67.3751 17.3191 66.6606 19.1153C65.9461 20.9051 65.3365 22.3753 65.3168 22.3753C65.2906 22.3753 64.6744 20.8796 63.9402 19.0514L62.603 15.7275H61.7312C61.2527 15.7275 60.8594 15.7467 60.8594 15.7723Z" fill="black"/>
<path d="M75.2852 20.1371V24.5476H76.0718H76.8584V20.1371V15.7265H76.0718H75.2852V20.1371Z" fill="black"/>
<path d="M83.1445 20.1371V24.5476H83.9639H84.7833V23.1477V21.7479L86.114 21.7159C87.543 21.6839 87.8511 21.6264 88.5524 21.294C89.031 21.0639 89.4374 20.7315 89.7061 20.3544C90.2371 19.6001 90.3354 18.4687 89.9552 17.4843C89.7848 17.0433 89.1948 16.4041 88.7229 16.1548C88.0215 15.7776 87.602 15.7265 85.2618 15.7265H83.1445V20.1371ZM87.4709 17.2606C87.8314 17.3948 88.146 17.6186 88.323 17.8806C88.4672 18.0852 88.4869 18.1811 88.4869 18.7052C88.4869 19.2613 88.4738 19.3125 88.2902 19.5745C88.146 19.7663 87.9625 19.9133 87.6544 20.0667L87.2218 20.2841L86.0025 20.316L84.7833 20.348V18.7308V17.12L86.0156 17.1455C86.8022 17.1647 87.3266 17.2095 87.4709 17.2606Z" fill="black"/>
<path d="M100.957 20.1368V24.5474H101.776H102.596V23.2753V22.0033L103.258 21.3257C103.625 20.955 103.946 20.6482 103.979 20.6482C104.005 20.6482 104.713 21.5239 105.552 22.5978L107.066 24.5474H108.043H109.026L107.945 23.1539C107.348 22.3932 106.463 21.2618 105.978 20.6418L105.1 19.5168L106.607 17.9891C107.44 17.1517 108.286 16.2952 108.489 16.0906L108.849 15.7263H107.859H106.87L104.752 17.9124L102.629 20.0985L102.609 17.9124L102.596 15.7263H101.776H100.957V20.1368Z" fill="black"/>
<path d="M128.355 20.1368V24.5474H131.535H134.714V23.8442V23.1411H132.354H129.994V19.4337V15.7263H129.175H128.355V20.1368Z" fill="black"/>
<path d="M139.783 16.4422C140.052 16.8385 140.858 18.0466 141.586 19.1269L142.91 21.0956V22.8215V24.5474H143.729H144.549V22.7767V21.0061L146.305 18.4237C147.269 16.9983 148.069 15.8093 148.075 15.7774C148.088 15.7518 147.689 15.7262 147.184 15.7262H146.266L145.021 17.6247C144.332 18.673 143.749 19.5232 143.723 19.5232C143.69 19.5168 143.12 18.6666 142.451 17.6375L141.232 15.7582L140.268 15.739L139.305 15.7199L139.783 16.4422Z" fill="black"/>
<path d="M167.488 20.1368V24.5474H168.275H169.061L169.075 21.4472L169.094 18.3406L171.552 21.4408L174.011 24.541L174.718 24.5474H175.42V20.1368V15.7263H174.601H173.781L173.768 18.7242L173.748 21.7284L171.369 18.7242L168.983 15.7263H168.236H167.488V20.1368Z" fill="black"/>
</svg>
