<svg width="24" height="25" viewBox="0 0 24 25" fill="none" xmlns="http://www.w3.org/2000/svg">
<path d="M21.0525 10.0073C20.0091 9.43921 18.6066 9.03046 17.0625 8.83827V8.15015C17.0625 7.0139 16.1644 5.98452 14.5312 5.25046C13.0463 4.58108 11.0813 4.21265 9 4.21265C6.91875 4.21265 4.95375 4.58108 3.46875 5.25046C1.83562 5.98452 0.9375 7.0139 0.9375 8.15015V11.9001C0.9375 13.0364 1.83562 14.0658 3.46875 14.7998C4.45219 15.2423 5.64469 15.5498 6.9375 15.712V16.4001C6.9375 17.5364 7.83563 18.5658 9.46875 19.2998C10.9537 19.9692 12.9187 20.3376 15 20.3376C17.0812 20.3376 19.0462 19.9692 20.5312 19.2998C22.1616 18.5658 23.0625 17.5364 23.0625 16.4001V12.6501C23.0625 11.6517 22.3491 10.7133 21.0525 10.0073ZM20.5144 10.9955C21.4322 11.4951 21.9375 12.0876 21.9375 12.6501C21.9375 13.9805 19.0884 15.4626 15 15.4626C14.3352 15.4631 13.671 15.4211 13.0116 15.337C13.5313 15.1976 14.0394 15.018 14.5312 14.7998C16.1616 14.0658 17.0625 13.0364 17.0625 11.9001V9.97171C18.4125 10.1526 19.6219 10.5089 20.5144 10.9955ZM10.14 14.6733C9.7725 14.6986 9.39 14.7126 9 14.7126C8.50313 14.7126 8.025 14.6901 7.5675 14.6498C7.55596 14.6489 7.54435 14.6489 7.53281 14.6498C7.19719 14.6189 6.87656 14.5776 6.5625 14.528V11.9114C7.3696 12.0296 8.18428 12.0886 9 12.0876C9.81572 12.0886 10.6304 12.0296 11.4375 11.9114V14.5251C11.0306 14.5898 10.6022 14.6395 10.1541 14.6714L10.14 14.6733ZM15.9375 10.2023V11.9001C15.9375 12.7945 14.6484 13.7564 12.5625 14.2917V11.6986C13.2381 11.5461 13.8974 11.3288 14.5312 11.0498C15.0355 10.8309 15.5084 10.5459 15.9375 10.2023ZM9 5.33765C13.0884 5.33765 15.9375 6.81983 15.9375 8.15015C15.9375 9.48046 13.0884 10.9626 9 10.9626C4.91156 10.9626 2.0625 9.48046 2.0625 8.15015C2.0625 6.81983 4.91156 5.33765 9 5.33765ZM2.0625 11.9001V10.2023C2.49186 10.5446 2.96474 10.8283 3.46875 11.0461C4.10264 11.3251 4.76194 11.5423 5.4375 11.6948V14.288C3.35156 13.7564 2.0625 12.7945 2.0625 11.9001ZM8.0625 16.4001V15.8114C8.37187 15.8283 8.68406 15.8376 9 15.8376C9.36938 15.8376 9.73375 15.8261 10.0931 15.803C10.5328 15.9616 10.9818 16.0934 11.4375 16.1976V18.7917C9.35156 18.2564 8.0625 17.2945 8.0625 16.4001ZM12.5625 19.0251V16.4095C13.3695 16.5284 14.1842 16.588 15 16.5876C15.8157 16.5886 16.6304 16.5296 17.4375 16.4114V19.0251C15.8221 19.2751 14.1779 19.2751 12.5625 19.0251ZM18.5625 18.7917V16.1986C19.2381 16.0461 19.8974 15.8288 20.5312 15.5498C21.0353 15.332 21.5081 15.0483 21.9375 14.7061V16.4001C21.9375 17.2945 20.6484 18.2564 18.5625 18.7917Z" fill="#49494B"/>
</svg>
