<svg width="129" height="128" viewBox="0 0 129 128" fill="none" xmlns="http://www.w3.org/2000/svg">
<path d="M90.5 46.555V42C90.5 30.785 72.05 22 48.5 22C24.95 22 6.5 30.785 6.5 42V62C6.5 71.57 19.93 79.36 38.5 81.445V86C38.5 97.215 56.95 106 80.5 106C104.05 106 122.5 97.215 122.5 86V66C122.5 56.56 109.435 48.685 90.5 46.555ZM118.5 66C118.5 73.725 103.23 82 80.5 82C75.8086 82.0071 71.1251 81.6157 66.5 80.83V80.135C80.805 76.98 90.5 70.135 90.5 62V50.585C106.61 52.5 118.5 58.965 118.5 66ZM54.595 77.795C52.6317 77.9317 50.6 78 48.5 78C45.765 78 43.14 77.875 40.635 77.655H40.5C38.42 77.465 36.42 77.205 34.5 76.875V60.9C39.1296 61.6414 43.8114 62.0093 48.5 62C53.1886 62.0093 57.8704 61.6414 62.5 60.9V76.86C59.9305 77.2986 57.3406 77.6074 54.74 77.785L54.595 77.795ZM86.5 50.66V62C86.5 67.44 78.92 73.15 66.5 76.055V60.135C75.315 58.19 82.375 54.845 86.5 50.66ZM48.5 26C71.23 26 86.5 34.275 86.5 42C86.5 49.725 71.23 58 48.5 58C25.77 58 10.5 49.725 10.5 42C10.5 34.275 25.77 26 48.5 26ZM10.5 62V50.66C14.625 54.845 21.685 58.19 30.5 60.16V76.08C18.08 73.15 10.5 67.44 10.5 62ZM42.5 86V81.8C44.455 81.93 46.46 82 48.5 82C50.54 82 52.53 81.93 54.5 81.805C57.1117 82.7552 59.7844 83.5286 62.5 84.12V100.055C50.08 97.15 42.5 91.44 42.5 86ZM66.5 100.86V84.885C71.1291 85.6323 75.811 86.0052 80.5 86C85.1886 86.0093 89.8704 85.6414 94.5 84.9V100.86C85.2286 102.38 75.7714 102.38 66.5 100.86ZM118.5 86C118.5 91.44 110.92 97.15 98.5 100.055V84.135C107.315 82.19 114.375 78.845 118.5 74.635V86Z" fill="#DCDFE2"/>
</svg>
