<svg width="17" height="16" viewBox="0 0 17 16" fill="none" xmlns="http://www.w3.org/2000/svg">
<rect x="0.900391" y="0.5" width="15" height="15" rx="7.5" fill="#FAD57C"/>
<rect x="0.900391" y="0.5" width="15" height="15" rx="7.5" stroke="#F9895B"/>
<path d="M9.55215 7.55556H11.0677V6.66667H10.321C10.5077 6.37333 10.6233 6.08 10.6233 5.77778C10.6233 4.60889 9.51215 4 8.40104 4C7.3566 4 6.41438 4.91556 6.30771 5.01778L6.93882 5.64889C7.15215 5.43556 7.82771 4.88889 8.40104 4.88889C8.86326 4.88889 9.73438 5.07556 9.73438 5.77778C9.73438 6 9.51215 6.32889 9.18326 6.66667H5.73438V7.55556H8.2366C8.04993 7.71556 7.40104 8.29778 7.24993 8.44444H5.73438V9.33333H6.48104C6.29437 9.62667 6.17882 9.92 6.17882 10.2222C6.17882 11.3911 7.28993 12 8.40104 12C9.44549 12 10.3877 11.0844 10.4944 10.9822L9.86326 10.3511C9.65438 10.5644 8.97438 11.1111 8.40104 11.1111C7.93882 11.1111 7.06771 10.9244 7.06771 10.2222C7.06771 10 7.28993 9.67111 7.61882 9.33333H11.0677V8.44444H8.56993L9.55215 7.55556Z" fill="#F9895B"/>
</svg>
