<svg width="22" height="19" viewBox="0 0 22 19" fill="none" xmlns="http://www.w3.org/2000/svg">
<path d="M21.4466 9.7439L18.4466 2.2439C18.3805 2.0787 18.2579 1.94236 18.1006 1.85924C17.9433 1.77612 17.7615 1.75163 17.5878 1.79015L11.75 3.08765V1.02515C11.75 0.826234 11.671 0.635469 11.5303 0.494817C11.3897 0.354164 11.1989 0.275146 11 0.275146C10.8011 0.275146 10.6103 0.354164 10.4697 0.494817C10.329 0.635469 10.25 0.826234 10.25 1.02515V3.42327L4.08689 4.79296C3.96806 4.81921 3.85741 4.87397 3.76447 4.95254C3.67153 5.0311 3.59911 5.1311 3.55345 5.2439V5.24952L0.553452 12.7439C0.517564 12.8333 0.499414 12.9288 0.500014 13.0251C0.500014 15.2105 2.80064 16.0251 4.25001 16.0251C5.69939 16.0251 8.00001 15.2105 8.00001 13.0251C8.00062 12.9288 7.98247 12.8333 7.94658 12.7439L5.27376 6.06608L10.25 4.96265V16.7751H8.75001C8.5511 16.7751 8.36034 16.8542 8.21968 16.9948C8.07903 17.1355 8.00001 17.3262 8.00001 17.5251C8.00001 17.7241 8.07903 17.9148 8.21968 18.0555C8.36034 18.1961 8.5511 18.2751 8.75001 18.2751H13.25C13.4489 18.2751 13.6397 18.1961 13.7803 18.0555C13.921 17.9148 14 17.7241 14 17.5251C14 17.3262 13.921 17.1355 13.7803 16.9948C13.6397 16.8542 13.4489 16.7751 13.25 16.7751H11.75V4.62702L16.5313 3.56577L14.0535 9.7439C14.0176 9.83329 13.9994 9.92882 14 10.0251C14 12.2105 16.3006 13.0251 17.75 13.0251C19.1994 13.0251 21.5 12.2105 21.5 10.0251C21.5006 9.92882 21.4825 9.83329 21.4466 9.7439ZM4.25001 14.5251C3.54408 14.5251 2.11626 14.1867 2.00658 13.1526L4.25001 7.54452L6.49345 13.1526C6.38376 14.1867 4.95595 14.5251 4.25001 14.5251ZM17.75 11.5251C17.0441 11.5251 15.6163 11.1867 15.5066 10.1526L17.75 4.54452L19.9935 10.1526C19.8838 11.1867 18.456 11.5251 17.75 11.5251Z" fill="#49494B"/>
</svg>
