<svg width="19" height="19" viewBox="0 0 19 19" fill="none" xmlns="http://www.w3.org/2000/svg">
<path d="M9.74958 4.77524V8.85055L13.1358 10.8821C13.3064 10.9846 13.4293 11.1506 13.4775 11.3436C13.5256 11.5366 13.4951 11.7409 13.3927 11.9115C13.2903 12.0821 13.1243 12.2049 12.9312 12.2531C12.7382 12.3013 12.5339 12.2708 12.3633 12.1684L8.61333 9.91836C8.50235 9.85168 8.41051 9.7574 8.34677 9.6447C8.28302 9.532 8.24954 9.40472 8.24958 9.27524V4.77524C8.24958 4.57633 8.3286 4.38556 8.46925 4.24491C8.60991 4.10426 8.80067 4.02524 8.99958 4.02524C9.1985 4.02524 9.38926 4.10426 9.52991 4.24491C9.67057 4.38556 9.74958 4.57633 9.74958 4.77524ZM17.9996 2.52524C17.8007 2.52524 17.6099 2.60426 17.4693 2.74491C17.3286 2.88556 17.2496 3.07633 17.2496 3.27524V4.96274C16.6543 4.27274 16.0468 3.60805 15.3633 2.91618C14.1126 1.66528 12.5209 0.8107 10.7872 0.459228C9.05356 0.107756 7.25475 0.274975 5.61557 0.93999C3.97639 1.605 2.56953 2.73832 1.57077 4.19834C0.572019 5.65836 0.025663 7.38033 -2.70401e-05 9.14908C-0.025717 10.9178 0.470398 12.6549 1.42633 14.1434C2.38226 15.6318 3.75561 16.8055 5.37479 17.5178C6.99397 18.2301 8.78716 18.4495 10.5303 18.1486C12.2735 17.8476 13.8893 17.0396 15.1758 15.8256C15.2475 15.7578 15.3051 15.6767 15.3454 15.5867C15.3857 15.4967 15.4078 15.3997 15.4106 15.3011C15.4134 15.2026 15.3968 15.1045 15.3616 15.0124C15.3265 14.9202 15.2735 14.836 15.2058 14.7643C15.1381 14.6926 15.057 14.635 14.967 14.5947C14.877 14.5545 14.78 14.5323 14.6814 14.5295C14.5829 14.5267 14.4847 14.5434 14.3926 14.5785C14.3005 14.6137 14.2162 14.6666 14.1446 14.7343C13.0721 15.745 11.7257 16.4174 10.2734 16.6674C8.82109 16.9175 7.32732 16.7341 5.97859 16.1403C4.62987 15.5465 3.48598 14.5685 2.68975 13.3284C1.89353 12.0884 1.48026 10.6413 1.50157 9.16775C1.52287 7.69424 1.97779 6.25966 2.80953 5.04315C3.64126 3.82664 4.81295 2.88212 6.17827 2.32753C7.5436 1.77294 9.04205 1.63287 10.4865 1.92479C11.931 2.21672 13.2574 2.92771 14.3002 3.96899C15.0633 4.74149 15.7318 5.48586 16.4058 6.27524H14.2496C14.0507 6.27524 13.8599 6.35426 13.7193 6.49491C13.5786 6.63556 13.4996 6.82633 13.4996 7.02524C13.4996 7.22415 13.5786 7.41492 13.7193 7.55557C13.8599 7.69622 14.0507 7.77524 14.2496 7.77524H17.9996C18.1985 7.77524 18.3893 7.69622 18.5299 7.55557C18.6706 7.41492 18.7496 7.22415 18.7496 7.02524V3.27524C18.7496 3.07633 18.6706 2.88556 18.5299 2.74491C18.3893 2.60426 18.1985 2.52524 17.9996 2.52524Z" fill="#0D0D0E"/>
</svg>
