<svg width="32" height="32" viewBox="0 0 32 32" fill="none" xmlns="http://www.w3.org/2000/svg">
<rect x="1" y="1" width="30" height="30" rx="15" fill="#FAD57C"/>
<rect x="1" y="1" width="30" height="30" rx="15" stroke="#F9895B" stroke-width="2"/>
<path d="M18.3021 15.1111H21.3332V13.3333H19.8398C20.2132 12.7467 20.4443 12.16 20.4443 11.5556C20.4443 9.21778 18.2221 8 15.9998 8C13.9109 8 12.0265 9.83111 11.8132 10.0356L13.0754 11.2978C13.5021 10.8711 14.8532 9.77778 15.9998 9.77778C16.9243 9.77778 18.6665 10.1511 18.6665 11.5556C18.6665 12 18.2221 12.6578 17.5643 13.3333H10.6665V15.1111H15.6709C15.2976 15.4311 13.9998 16.5956 13.6976 16.8889H10.6665V18.6667H12.1598C11.7865 19.2533 11.5554 19.84 11.5554 20.4444C11.5554 22.7822 13.7776 24 15.9998 24C18.0887 24 19.9732 22.1689 20.1865 21.9644L18.9243 20.7022C18.5065 21.1289 17.1465 22.2222 15.9998 22.2222C15.0754 22.2222 13.3332 21.8489 13.3332 20.4444C13.3332 20 13.7776 19.3422 14.4354 18.6667H21.3332V16.8889H16.3376L18.3021 15.1111Z" fill="#F9895B"/>
</svg>
