<svg width="20" height="21" viewBox="0 0 20 21" fill="none" xmlns="http://www.w3.org/2000/svg">
<path d="M10 0.525146C8.07164 0.525146 6.18657 1.09697 4.58319 2.16832C2.97982 3.23966 1.73013 4.7624 0.992179 6.54398C0.254225 8.32556 0.061142 10.286 0.437348 12.1773C0.813554 14.0686 1.74215 15.8059 3.10571 17.1694C4.46928 18.533 6.20656 19.4616 8.09787 19.8378C9.98919 20.214 11.9496 20.0209 13.7312 19.283C15.5127 18.545 17.0355 17.2953 18.1068 15.692C19.1782 14.0886 19.75 12.2035 19.75 10.2751C19.7473 7.69012 18.7192 5.21176 16.8913 3.38387C15.0634 1.55598 12.585 0.527876 10 0.525146ZM10 18.5251C8.36831 18.5251 6.77326 18.0413 5.41655 17.1348C4.05984 16.2282 3.00242 14.9398 2.378 13.4323C1.75358 11.9248 1.5902 10.266 1.90853 8.66565C2.22685 7.06531 3.01259 5.5953 4.16637 4.44152C5.32016 3.28773 6.79017 2.502 8.39051 2.18367C9.99085 1.86534 11.6497 2.02872 13.1571 2.65314C14.6646 3.27756 15.9531 4.33499 16.8596 5.69169C17.7661 7.0484 18.25 8.64345 18.25 10.2751C18.2475 12.4624 17.3775 14.5594 15.8309 16.106C14.2843 17.6527 12.1873 18.5227 10 18.5251ZM16 10.2751C16 10.4741 15.921 10.6648 15.7803 10.8055C15.6397 10.9461 15.4489 11.0251 15.25 11.0251H10C9.80109 11.0251 9.61033 10.9461 9.46967 10.8055C9.32902 10.6648 9.25 10.4741 9.25 10.2751V5.02515C9.25 4.82623 9.32902 4.63547 9.46967 4.49482C9.61033 4.35416 9.80109 4.27515 10 4.27515C10.1989 4.27515 10.3897 4.35416 10.5303 4.49482C10.671 4.63547 10.75 4.82623 10.75 5.02515V9.52515H15.25C15.4489 9.52515 15.6397 9.60416 15.7803 9.74482C15.921 9.88547 16 10.0762 16 10.2751Z" fill="#49494B"/>
</svg>
