<svg width="24" height="16" viewBox="0 0 24 16" fill="none" xmlns="http://www.w3.org/2000/svg">
<path d="M23.1853 7.9714C23.1525 7.89733 22.3584 6.13577 20.5931 4.37046C18.2409 2.01827 15.27 0.775146 12 0.775146C8.72999 0.775146 5.75905 2.01827 3.40687 4.37046C1.64155 6.13577 0.843741 7.90015 0.814679 7.9714C0.772035 8.06731 0.75 8.17111 0.75 8.27608C0.75 8.38105 0.772035 8.48485 0.814679 8.58077C0.847491 8.65483 1.64155 10.4155 3.40687 12.1808C5.75905 14.532 8.72999 15.7751 12 15.7751C15.27 15.7751 18.2409 14.532 20.5931 12.1808C22.3584 10.4155 23.1525 8.65483 23.1853 8.58077C23.2279 8.48485 23.25 8.38105 23.25 8.27608C23.25 8.17111 23.2279 8.06731 23.1853 7.9714ZM12 14.2751C9.11437 14.2751 6.59343 13.2261 4.50655 11.158C3.65028 10.3064 2.92179 9.33542 2.34374 8.27515C2.92164 7.21478 3.65014 6.24375 4.50655 5.39233C6.59343 3.32421 9.11437 2.27515 12 2.27515C14.8856 2.27515 17.4066 3.32421 19.4934 5.39233C20.3514 6.24355 21.0815 7.21457 21.6609 8.27515C20.985 9.53702 18.0403 14.2751 12 14.2751ZM12 3.77515C11.11 3.77515 10.2399 4.03907 9.49993 4.53353C8.7599 5.028 8.18313 5.7308 7.84253 6.55307C7.50194 7.37534 7.41282 8.28014 7.58646 9.15305C7.76009 10.026 8.18867 10.8278 8.81801 11.4571C9.44735 12.0865 10.2492 12.515 11.1221 12.6887C11.995 12.8623 12.8998 12.7732 13.7221 12.4326C14.5443 12.092 15.2471 11.5152 15.7416 10.7752C16.2361 10.0352 16.5 9.16516 16.5 8.27515C16.4988 7.08205 16.0242 5.93818 15.1806 5.09454C14.337 4.25089 13.1931 3.77639 12 3.77515ZM12 11.2751C11.4066 11.2751 10.8266 11.0992 10.3333 10.7696C9.83993 10.4399 9.45542 9.97137 9.22835 9.4232C9.00129 8.87502 8.94188 8.27182 9.05764 7.68988C9.17339 7.10793 9.45911 6.57338 9.87867 6.15383C10.2982 5.73427 10.8328 5.44855 11.4147 5.33279C11.9967 5.21703 12.5999 5.27644 13.148 5.50351C13.6962 5.73057 14.1648 6.11509 14.4944 6.60844C14.824 7.10178 15 7.6818 15 8.27515C15 9.0708 14.6839 9.83386 14.1213 10.3965C13.5587 10.9591 12.7956 11.2751 12 11.2751Z" fill="#49494B"/>
</svg>
