<svg width="22" height="19" viewBox="0 0 22 19" fill="none" xmlns="http://www.w3.org/2000/svg">
<path d="M15.6875 0.275146C13.7516 0.275146 12.0566 1.10765 11 2.51483C9.94344 1.10765 8.24844 0.275146 6.3125 0.275146C4.77146 0.276883 3.29404 0.889828 2.20436 1.97951C1.11468 3.06919 0.501737 4.54661 0.5 6.08765C0.5 12.6501 10.2303 17.962 10.6447 18.1814C10.7539 18.2401 10.876 18.2709 11 18.2709C11.124 18.2709 11.2461 18.2401 11.3553 18.1814C11.7697 17.962 21.5 12.6501 21.5 6.08765C21.4983 4.54661 20.8853 3.06919 19.7956 1.97951C18.706 0.889828 17.2285 0.276883 15.6875 0.275146ZM11 16.6626C9.28813 15.6651 2 11.1211 2 6.08765C2.00149 4.94436 2.45632 3.84832 3.26475 3.03989C4.07317 2.23146 5.16921 1.77663 6.3125 1.77515C8.13594 1.77515 9.66687 2.7464 10.3062 4.3064C10.3628 4.44395 10.4589 4.56161 10.5824 4.64441C10.7059 4.72721 10.8513 4.77142 11 4.77142C11.1487 4.77142 11.2941 4.72721 11.4176 4.64441C11.5411 4.56161 11.6372 4.44395 11.6937 4.3064C12.3331 2.74358 13.8641 1.77515 15.6875 1.77515C16.8308 1.77663 17.9268 2.23146 18.7353 3.03989C19.5437 3.84832 19.9985 4.94436 20 6.08765C20 11.1136 12.71 15.6642 11 16.6626Z" fill="#49494B"/>
</svg>
